# xmcd
#
# Track frame offsets:
#	150
#	18089
#	35413
#	51871
#	68973
#	86471
#	106001
#	123242
#	141265
#	163804
#	183812
#
# Disc length: 2619 seconds
#
# Revision: 1
# Processed by: cddbd v1.5.2PL0 Copyright (c) Steve Scherf et al.
# Submitted via: audiograbber 1.83.01
#
DISCID=870a390b
DTITLE=Amy Grant - Heart In Motion
DYEAR=1991
DGENRE=
TTITLE0=Good For Me
TTITLE1=Baby Baby
TTITLE2=Every Heartbeat
TTITLE3=That's What Love Is For
TTITLE4=Ask Me
TTITLE5=Galileo
TTITLE6=You're Not Alone
TTITLE7=Hats
TTITLE8=I Will Remember You
TTITLE9=How Can We See That Far
TTITLE10=Hope Set High
EXTD=
EXTT0=
EXTT1=
EXTT2=
EXTT3=
EXTT4=
EXTT5=
EXTT6=
EXTT7=
EXTT8=
EXTT9=
EXTT10=
PLAYORDER=
